<svg viewBox="0 0 512 512" xmlns="http://www.w3.org/2000/svg">
  <path d="M500 404.5l-.1-.9a84 84 0 00-83.1-62.3h-1.2l-.9-5a28.5 28.5 0 00-29.2-20.6h-52.7v-26.2a68.3 68.3 0 0059.7-67.6V102.4a68.3 68.3 0 00-68.2-68.3h-17.1v-17a17 17 0 00-17-17.1h-68.3a17 17 0 00-17.1 17v17.1h-17a68.3 68.3 0 00-68.3 68.3v119.5a68.3 68.3 0 0059.7 67.6v26.2h-52.6a28.5 28.5 0 00-29.3 20.8l-.8 4.8h-1.3A84 84 0 0012 404.5l-7.8 57.3C1.4 473 0 484.4 0 495.8v7.7c0 4.7 3.8 8.5 8.5 8.5h495c4.7 0 8.5-3.8 8.5-8.5v-7.6c0-11.5-1.4-23-4-34zM222 17.1H290v17H222zm-85.4 204.8V102.4c0-28.3 23-51.2 51.2-51.2h136.6c28.2 0 51.1 23 51.2 51.2v119.5c0 28.2-23 51.1-51.2 51.2H187.7c-28.2 0-51.1-23-51.2-51.2zm59.8 68.2h119.4v25.6H196.3zM20.7 465.5l.2-.9 7.9-57.3a66.9 66.9 0 0164.6-48.8L69.6 495H17.1c0-9.9 1.3-19.8 3.6-29.4zm388.9 29.4H87l27-155.3c2.4-4.7 7.4-7.4 12.6-6.8h258.9c5.1-.6 10 2 12.4 6.6L425.1 495zm32.8 0l-23.8-136.4c30 0 56.5 19.9 64.6 48.8l7.9 57.3a126.3 126.3 0 013.8 30.3zm0 0"/>
  <path d="M213.3 162.1c4.7 0 8.6-3.8 8.6-8.5v-17a8.5 8.5 0 10-17.1 0v17c0 4.7 3.8 8.5 8.5 8.5zm0 0M298.7 162.1c4.7 0 8.5-3.8 8.5-8.5v-17a8.5 8.5 0 10-17 0v17c0 4.7 3.8 8.5 8.5 8.5zm0 0M213.3 196.3c0 1 .5 25.6 42.7 25.6s42.7-24.6 42.7-25.6c0-4.8-3.8-8.7-8.6-8.8a8.3 8.3 0 00-8.5 8.3c-.4 3.1-6.3 9-25.6 9s-25.2-5.9-25.6-8.5a8.5 8.5 0 00-17 0zm0 0"/>
</svg>