<svg xmlns="http://www.w3.org/2000/svg" viewBox="0 0 512 512">
  <path d="M477.5 424.8h-443c-19 0-34.5-15.5-34.5-34.5V38.5C0 19.5 15.5 4 34.5 4h443c19 0 34.5 15.4 34.5 34.5v351.8c0 19-15.5 34.5-34.5 34.5z" fill="#53515e"/>
  <path d="M364.4 339.5a8.2 8.2 0 01-8.2-8.2v-249a8.2 8.2 0 1116.4 0v249c0 4.5-3.7 8.2-8.2 8.2z" fill="#474756"/>
  <path d="M477.5 4h-443C15.5 4 0 19.4 0 38.5V87h512V38.5c0-19-15.5-34.5-34.5-34.5z" fill="#6f4bef"/>
  <path d="M323.8 54.2h-152a8.2 8.2 0 010-16.3h152a8.2 8.2 0 010 16.3z" fill="#4628b2"/>
  <circle cx="45.6" cy="46.1" r="10.9" fill="#ffdc64"/>
  <circle cx="87.7" cy="46.1" r="10.9" fill="#86e56e"/>
  <circle cx="127.4" cy="46.1" r="10.9" fill="#ffdc64"/>
  <circle cx="467.6" cy="46.1" r="10.9" fill="#ff80bd"/>
  <path d="M460.8 317h-407a31.6 31.6 0 00-31.6 31.5v74c3.8 1.5 8 2.3 12.3 2.3h443c5.3 0 10.4-1.2 14.9-3.4v-73a31.6 31.6 0 00-31.6-31.5z" fill="#474756"/>
  <circle cx="49.8" cy="130.1" r="8.2" fill="#aaa8c1"/>
  <path d="M189.2 138.2h-107a8.2 8.2 0 010-16.3h107a8.2 8.2 0 010 16.3z" fill="#00aaf0"/>
  <g fill="#3c3b44">
    <path d="M478.5 130h-80.4a8.2 8.2 0 010-16.3h80.4a8.2 8.2 0 010 16.4zM478.5 165.2h-80.4a8.2 8.2 0 010-16.3h80.4a8.2 8.2 0 010 16.3zM478.5 200.3h-80.4a8.2 8.2 0 010-16.3h80.4a8.2 8.2 0 010 16.3zM478.5 235.4h-80.4a8.2 8.2 0 010-16.3h80.4a8.2 8.2 0 010 16.3zM478.5 270.6h-80.4a8.2 8.2 0 110-16.4h80.4a8.2 8.2 0 110 16.4zM478.5 305.7h-80.4a8.2 8.2 0 110-16.3h80.4a8.2 8.2 0 110 16.3z"/>
  </g>
  <circle cx="49.8" cy="164.4" r="8.2" fill="#aaa8c1"/>
  <path d="M138.3 172.5H82.2a8.2 8.2 0 010-16.3h56.1a8.2 8.2 0 010 16.3z" fill="#00aaf0"/>
  <circle cx="49.8" cy="265.7" r="8.2" fill="#aaa8c1"/>
  <path d="M166.7 273.8H82.2a8.2 8.2 0 110-16.3h84.5a8.2 8.2 0 110 16.3z" fill="#86e56e"/>
  <circle cx="49.8" cy="299.2" r="8.2" fill="#aaa8c1"/>
  <g fill="#00aaf0">
    <path d="M166.7 307.3H82.2a8.2 8.2 0 110-16.3h84.5a8.2 8.2 0 110 16.3zM223.6 273.8h-29.8a8.2 8.2 0 110-16.3h29.8a8.2 8.2 0 110 16.3z"/>
  </g>
  <path d="M228 172.5h-56.2a8.2 8.2 0 010-16.3H228a8.2 8.2 0 010 16.3z" fill="#ffdc64"/>
  <circle cx="49.8" cy="198.7" r="8.2" fill="#aaa8c1"/>
  <path d="M193.8 206.9h-77.5a8.2 8.2 0 010-16.4h77.5a8.2 8.2 0 010 16.4z" fill="#ff80bd"/>
  <circle cx="49.8" cy="231.4" r="8.2" fill="#aaa8c1"/>
  <path d="M257.7 239.5H116.3a8.2 8.2 0 010-16.3h141.4a8.2 8.2 0 010 16.3z" fill="#ffdc64"/>
  <path d="M305.5 206.9H228a8.2 8.2 0 010-16.4h77.5a8.2 8.2 0 010 16.4z" fill="#86e56e"/>
  <path d="M440.5 508H74a28.4 28.4 0 01-28.4-28.4V364.4A28.4 28.4 0 0174 335.9h366.5a28.4 28.4 0 0128.5 28.5v115.2a28.4 28.4 0 01-28.5 28.4z" fill="#ff6b5c"/>
  <path d="M440.5 336h-17.1c0 74.7-60.6 135.3-135.4 135.3H45.6v8.3A28.4 28.4 0 0074 508h366.5a28.4 28.4 0 0028.5-28.4V364.4a28.4 28.4 0 00-28.5-28.5z" fill="#ff5450"/>
  <g fill="#fff">
    <path d="M104.6 456v-70.4c0-1.7.7-3 2.2-4 1.5-.8 3.2-1.3 5.3-1.3h39.4c1.7 0 3 .7 3.9 2.2a10 10 0 011.3 5.2c0 2.2-.4 4-1.4 5.4a4.3 4.3 0 01-3.8 2.3h-29.7V414h16.7c1.6 0 2.9.6 3.8 2 .9 1.3 1.4 2.9 1.4 4.7a8 8 0 01-1.4 4.6c-.9 1.3-2.1 2-3.8 2h-16.7v18.8h29.7c1.6 0 3 .7 3.8 2.2a10 10 0 011.4 5.4c0 2-.4 3.8-1.3 5.2a4.3 4.3 0 01-3.9 2.3h-39.4c-2 0-3.8-.5-5.3-1.4a4.4 4.4 0 01-2.2-4zM164.3 456v-70.5c0-1.4.5-2.6 1.5-3.7a5 5 0 013.8-1.5h22.9c18.2 0 27.2 7.9 27.2 23.7 0 11.5-4.4 19-13.4 22.5l13.5 24.5c.4.5.6 1.1.6 2 0 2-1.2 4.1-3.5 6-2.3 2-4.8 3-7.3 3-2.6 0-4.5-1.2-5.6-3.3l-15.2-29.5h-7.3V456c0 1.7-.8 3-2.5 4-1.7.9-3.7 1.3-6.1 1.3-2.4 0-4.4-.4-6.1-1.3-1.7-1-2.5-2.3-2.5-4zm17.2-40h11c3.2 0 5.7-.8 7.4-2.4 1.7-1.6 2.6-4.3 2.6-8 0-3.6-.9-6.3-2.6-7.9-1.7-1.5-4.2-2.3-7.4-2.3h-11V416zM229 456v-70.5c0-1.4.4-2.6 1.4-3.7a5 5 0 013.8-1.5h23c18.1 0 27.2 7.9 27.2 23.7 0 11.5-4.5 19-13.4 22.5l13.5 24.5c.4.5.6 1.1.6 2 0 2-1.2 4.1-3.5 6-2.3 2-4.8 3-7.4 3-2.6 0-4.4-1.2-5.5-3.3l-15.2-29.5h-7.3V456c0 1.7-.8 3-2.5 4-1.7.9-3.8 1.3-6.1 1.3-2.4 0-4.4-.4-6.1-1.3-1.7-1-2.6-2.3-2.6-4zm17.2-40h11c3.2 0 5.7-.8 7.4-2.4 1.7-1.6 2.5-4.3 2.5-8 0-3.6-.8-6.3-2.5-7.9-1.7-1.5-4.2-2.3-7.4-2.3h-11V416zM292.7 435.8v-29.4c0-9 2.5-15.6 7.4-19.8 5-4.2 11.6-6.3 19.7-6.3 8.3 0 15 2.1 19.9 6.3 5 4.2 7.4 10.8 7.4 19.8v29.4c0 9-2.5 15.6-7.4 19.8-5 4.2-11.6 6.3-19.9 6.3-8.1 0-14.7-2-19.7-6.3-5-4.2-7.4-10.8-7.4-19.8zm17.3 0c0 7.4 3.3 11 9.8 11 6.7 0 10-3.6 10-11v-29.4c0-7.3-3.3-11-10-11-6.5 0-9.8 3.7-9.8 11v29.4zM358.2 456v-70.5a5 5 0 011.5-3.7 5 5 0 013.8-1.5h22.9c18.2 0 27.2 7.9 27.2 23.7 0 11.5-4.4 19-13.4 22.5l13.6 24.5c.3.5.5 1.1.5 2 0 2-1.2 4.1-3.5 6-2.3 2-4.8 3-7.3 3-2.6 0-4.5-1.2-5.6-3.3l-15.2-29.5h-7.3V456c0 1.7-.8 3-2.5 4-1.7.9-3.7 1.3-6.1 1.3-2.4 0-4.4-.4-6-1.3-1.8-1-2.6-2.3-2.6-4zm17.2-40h11c3.3 0 5.7-.8 7.4-2.4 1.7-1.6 2.6-4.3 2.6-8 0-3.6-.9-6.3-2.6-7.9-1.7-1.5-4.2-2.3-7.4-2.3h-11V416z"/>
  </g>
</svg>
